<?xml version="1.0" encoding="UTF-8"?>
<!-- Generated by Pixelmator Pro 4.0 -->
<svg width="152" height="157" viewBox="0 0 152 157" xmlns="http://www.w3.org/2000/svg">
    <g id="Group">
        <path id="Path" fill="#ffffff" fill-opacity="0.85" stroke="none" d="M 116.277 16.423798 L 36.701401 16.423798 C 37.014301 11.999802 39.8866 9.441406 44.580101 9.441406 L 108.349998 9.441406 C 113.042999 9.441406 115.959 11.999802 116.277 16.423798 Z"/>
        <path id="path1" fill="#ffffff" fill-opacity="0.85" stroke="none" d="M 128.878006 33.512802 C 127.127998 33.245399 125.274002 33.123001 123.339996 33.123001 L 29.5898 33.123001 C 27.6553 33.123001 25.801201 33.244301 24.0516 33.509796 C 24.7157 28.317902 28.2931 25.408203 34.033199 25.408203 L 118.896004 25.408203 C 124.638 25.408203 128.214996 28.319 128.878006 33.512802 Z"/>
        <path id="path2" fill="#ffffff" fill-opacity="0.85" stroke="none" d="M 142.334 62.517601 L 142.334 127.604996 C 142.334 140.057007 135.938004 146.453003 123.339996 146.453003 L 29.5898 146.453003 C 16.943399 146.453003 10.5957 140.104996 10.5957 127.604996 L 10.5957 62.517601 C 10.5957 50.017601 16.943399 43.718697 29.5898 43.718697 L 123.339996 43.718697 C 135.938004 43.718697 142.334 50.066399 142.334 62.517601 Z M 89.013702 93.474602 L 62.3535 116.814003 L 51.904301 107.342003 C 49.414101 105.046997 46.826199 103.875 43.8965 103.875 C 41.162102 103.875 38.818401 105.046997 36.279301 107.292999 L 20.2148 121.501999 L 20.2148 126.530998 C 20.2148 133.317993 23.8281 136.834 30.4688 136.834 L 122.510002 136.834 C 128.955002 136.834 132.714996 133.317993 132.714996 126.530998 L 132.714996 117.448997 L 107.128998 93.523399 C 104.491997 91.033203 101.366997 89.8125 98.046898 89.8125 C 94.677696 89.8125 91.845703 90.935501 89.013702 93.474602 Z M 43.8965 80.291 C 43.8965 88.005798 50.1465 94.402298 57.910198 94.402298 C 65.576202 94.402298 71.826202 88.005798 71.826202 80.291 C 71.826202 72.673798 65.576202 66.326202 57.910198 66.326202 C 50.1465 66.326202 43.8965 72.673798 43.8965 80.291 Z"/>
    </g>
</svg>
