<?xml version="1.0" encoding="UTF-8"?>
<!--Generator: Apple Native CoreSVG 341-->
<!DOCTYPE svg
PUBLIC "-//W3C//DTD SVG 1.1//EN"
       "http://www.w3.org/Graphics/SVG/1.1/DTD/svg11.dtd">
<svg version="1.1" xmlns="http://www.w3.org/2000/svg" xmlns:xlink="http://www.w3.org/1999/xlink" viewBox="0 0 152.93 157.959">
 <g>
  <rect height="157.959" opacity="0" width="152.93" x="0" y="0"/>
  <path d="M116.277 17.3828L36.7014 17.3828C37.0143 12.9588 39.8866 10.4004 44.5801 10.4004L108.35 10.4004C113.043 10.4004 115.959 12.9588 116.277 17.3828Z" fill="white" fill-opacity="0.85"/>
  <path d="M128.878 34.4718C127.128 34.2044 125.274 34.082 123.34 34.082L29.5898 34.082C27.6553 34.082 25.8012 34.2033 24.0516 34.4688C24.7157 29.2769 28.2931 26.3672 34.0332 26.3672L118.896 26.3672C124.638 26.3672 128.215 29.278 128.878 34.4718Z" fill="white" fill-opacity="0.85"/>
  <path d="M142.334 63.4766L142.334 128.564C142.334 141.016 135.938 147.412 123.34 147.412L29.5898 147.412C16.9434 147.412 10.5957 141.064 10.5957 128.564L10.5957 63.4766C10.5957 50.9766 16.9434 44.6777 29.5898 44.6777L123.34 44.6777C135.938 44.6777 142.334 51.0254 142.334 63.4766ZM89.0137 94.4336L62.3535 117.773L51.9043 108.301C49.4141 106.006 46.8262 104.834 43.8965 104.834C41.1621 104.834 38.8184 106.006 36.2793 108.252L20.2148 122.461L20.2148 127.49C20.2148 134.277 23.8281 137.793 30.4688 137.793L122.51 137.793C128.955 137.793 132.715 134.277 132.715 127.49L132.715 118.408L107.129 94.4824C104.492 91.9922 101.367 90.7715 98.0469 90.7715C94.6777 90.7715 91.8457 91.8945 89.0137 94.4336ZM43.8965 81.25C43.8965 88.9648 50.1465 95.3613 57.9102 95.3613C65.5762 95.3613 71.8262 88.9648 71.8262 81.25C71.8262 73.6328 65.5762 67.2852 57.9102 67.2852C50.1465 67.2852 43.8965 73.6328 43.8965 81.25Z" fill="white" fill-opacity="0.85"/>
 </g>
</svg>
